<?xml version="1.0" encoding="UTF-8" standalone="no"?>
<svg
   xmlns:dc="http://purl.org/dc/elements/1.1/"
   xmlns:cc="http://creativecommons.org/ns#"
   xmlns:rdf="http://www.w3.org/1999/02/22-rdf-syntax-ns#"
   xmlns:svg="http://www.w3.org/2000/svg"
   xmlns="http://www.w3.org/2000/svg"
   id="svg1371"
   version="1.1"
   viewBox="0 0 17.37184 13.80666"
   height="13.80666mm"
   width="17.37184mm">
  <defs
     id="defs1365" />
  <metadata
     id="metadata1368">
    <rdf:RDF>
      <cc:Work
         rdf:about="">
        <dc:format>image/svg+xml</dc:format>
        <dc:type
           rdf:resource="http://purl.org/dc/dcmitype/StillImage" />
        <dc:title></dc:title>
      </cc:Work>
    </rdf:RDF>
  </metadata>
  <g
     transform="translate(-131.92122,-115.47167)"
     id="layer1">
    <path
       d="m 134.33705,115.47167 h 12.54019 c 1.33808,0 2.41582,1.07773 2.41582,2.41723 v 8.97361 c 0,1.33809 -1.07774,2.41582 -2.41582,2.41582 h -12.54019 c -1.33809,0 -2.41583,-1.07773 -2.41583,-2.41582 v -8.97361 c 0,-1.3395 1.07774,-2.41723 2.41583,-2.41723 z"
       style="fill:#e7e7e7;fill-opacity:1;fill-rule:nonzero;stroke:none;stroke-width:0.35277775"
       id="path18" />
    <path
       d="m 138.98242,119.71735 v 0.13229 c -0.19826,0 -0.32526,0.0318 -0.38029,0.0938 -0.0924,0.11007 -0.13794,0.27023 -0.13794,0.47942 v 1.49931 c 0,0.0635 -0.21202,0.16827 -0.63394,0.31432 -0.42298,0.14605 -0.81562,0.22049 -1.17933,0.22049 -0.40817,0 -0.78282,-0.0607 -1.12466,-0.18203 -0.39405,-0.13229 -0.71649,-0.33761 -0.97014,-0.61736 -0.21343,-0.23143 -0.36371,-0.46849 -0.45191,-0.71085 -0.11042,-0.30057 -0.16545,-0.67945 -0.16545,-1.13559 0,-0.66146 0.22613,-1.2319 0.67804,-1.71415 0.49212,-0.52105 1.11478,-0.78281 1.86866,-0.78281 0.24518,0 0.47555,0.0261 0.68898,0.0773 0.21237,0.0593 0.42721,0.11572 0.64488,0.17075 0.0801,0 0.15592,-0.0233 0.22613,-0.0716 0.0688,-0.0469 0.11147,-0.10619 0.12664,-0.17639 h 0.16546 v 1.57656 h -0.11571 c -0.17357,-0.4699 -0.40782,-0.80645 -0.70556,-1.00894 -0.26458,-0.17921 -0.57326,-0.26988 -0.92604,-0.26988 -0.45191,0 -0.83785,0.1584 -1.15747,0.47378 -0.43003,0.41628 -0.64523,1.04175 -0.64523,1.8796 0,0.67275 0.17392,1.20721 0.52388,1.60408 0.35278,0.39405 0.82127,0.58985 1.40547,0.58985 0.26458,0 0.50165,-0.0399 0.7112,-0.12136 0.20955,-0.084 0.31397,-0.19015 0.31397,-0.31962 v -1.2072 c 0,-0.29351 -0.0427,-0.4766 -0.12665,-0.55104 -0.0854,-0.073 -0.26176,-0.11042 -0.52917,-0.11042 v -0.13229 z"
       style="fill:#008000;fill-opacity:1;fill-rule:nonzero;stroke:none;stroke-width:0.35277775"
       id="path20" />
    <path
       d="m 139.30627,122.41292 -0.0166,-0.0882 c 0.35278,-0.0621 0.65053,-0.21484 0.89288,-0.45755 0.22755,-0.23425 0.38065,-0.51541 0.45756,-0.8435 l -0.0109,-0.0109 c -0.0963,0.0815 -0.20108,0.14323 -0.31432,0.18732 -0.1143,0.0416 -0.2286,0.0607 -0.34149,0.0607 -0.26882,0 -0.47696,-0.10054 -0.62301,-0.30303 -0.11853,-0.16122 -0.17639,-0.35419 -0.17639,-0.57891 0,-0.30022 0.084,-0.55386 0.25365,-0.76059 0.17216,-0.20532 0.3997,-0.30868 0.68333,-0.30868 0.27587,0 0.50447,0.11571 0.68898,0.34713 0.18767,0.22895 0.28116,0.52811 0.28116,0.89853 0,0.50024 -0.15416,0.92604 -0.46284,1.27882 -0.33902,0.38594 -0.77576,0.5789 -1.31199,0.5789 z m 1.34515,-1.67569 v -0.17639 c 0,-0.3817 -0.0469,-0.66146 -0.13794,-0.83785 -0.0991,-0.19438 -0.25082,-0.2921 -0.45191,-0.2921 -0.17392,0 -0.30056,0.0825 -0.38029,0.24801 -0.0663,0.13652 -0.0995,0.31291 -0.0995,0.52916 0,0.22472 0.036,0.41064 0.11042,0.55669 0.0949,0.20249 0.24942,0.30303 0.46285,0.30303 0.0691,0 0.14464,-0.0162 0.22613,-0.0494 0.084,-0.0332 0.15028,-0.0677 0.19826,-0.10477 0.0469,-0.036 0.072,-0.0952 0.072,-0.17639 z"
       style="fill:#008000;fill-opacity:1;fill-rule:nonzero;stroke:none;stroke-width:0.35277775"
       id="path22" />
    <path
       d="m 132.92735,123.52629 h 15.35959 c 0.55668,0 1.00612,0.44944 1.00612,1.00612 v 3.7398 c 0,0.55668 -0.44944,1.00612 -1.00612,1.00612 h -15.35959 c -0.5581,0 -1.00613,-0.44944 -1.00613,-1.00612 v -3.7398 c 0,-0.55668 0.44803,-1.00612 1.00613,-1.00612 z"
       style="fill:#008000;fill-opacity:1;fill-rule:nonzero;stroke:none;stroke-width:0.35277775"
       id="path24" />
    <path
       d="m 135.50968,124.94587 v 0.0825 c -0.1584,0 -0.26705,0.0261 -0.32526,0.0773 -0.0593,0.048 -0.0882,0.15698 -0.0882,0.32526 v 2.10008 c 0,0.0854 0.0251,0.13759 0.0773,0.15981 0.055,0.0194 0.17921,0.0275 0.37501,0.0275 0.37465,0 0.62547,-0.0275 0.75494,-0.0825 0.17921,-0.073 0.32808,-0.24553 0.44662,-0.51823 h 0.11006 l -0.20919,0.77153 h -2.39254 v -0.0825 c 0.1464,0 0.24835,-0.0247 0.30339,-0.0773 0.055,-0.055 0.0825,-0.16263 0.0825,-0.32526 v -1.97309 c 0,-0.16828 -0.0275,-0.27729 -0.0825,-0.32526 -0.0526,-0.0512 -0.15311,-0.0773 -0.30339,-0.0773 v -0.0825 z"
       style="fill:#ececec;fill-opacity:1;fill-rule:nonzero;stroke:none;stroke-width:0.35277775"
       id="path26" />
    <path
       d="m 136.99382,127.88909 v -0.066 c 0.14358,0 0.23706,-0.0222 0.28116,-0.0663 0.0469,-0.0441 0.0716,-0.14993 0.0716,-0.31961 v -1.03082 c 0,-0.11712 -0.0166,-0.19438 -0.0494,-0.23142 -0.0222,-0.0247 -0.0593,-0.0384 -0.11042,-0.0384 -0.0303,0 -0.0536,0.002 -0.0716,0.005 -0.0152,0 -0.0497,0.004 -0.10477,0.0109 v -0.066 c 0.13934,-0.0441 0.25364,-0.0825 0.34184,-0.11572 0.15416,-0.0579 0.27023,-0.10054 0.34713,-0.127 l 0.0166,0.0113 v 1.58186 c 0,0.15452 0.018,0.25788 0.055,0.30868 0.0402,0.0526 0.13264,0.0773 0.27587,0.0773 v 0.066 z m 0.27587,-2.81093 c 0,-0.0511 0.0166,-0.0995 0.0494,-0.14358 0.0441,-0.055 0.10054,-0.0825 0.17109,-0.0825 0.066,0 0.12101,0.0219 0.1651,0.066 0.0441,0.0441 0.0663,0.0981 0.0663,0.16016 0,0.066 -0.0222,0.121 -0.0663,0.1651 -0.0413,0.0416 -0.0963,0.0607 -0.1651,0.0607 -0.0705,0 -0.12558,-0.0233 -0.16545,-0.0716 -0.0374,-0.0508 -0.055,-0.10195 -0.055,-0.15416 z"
       style="fill:#ececec;fill-opacity:1;fill-rule:nonzero;stroke:none;stroke-width:0.35277775"
       id="path28" />
    <path
       d="m 138.83779,126.45611 v 1.1243 c 0,0.0663 0.0564,0.11995 0.17074,0.15981 0.0882,0.0332 0.17357,0.0497 0.25929,0.0497 0.22331,0 0.38312,-0.0938 0.47943,-0.28116 0.0688,-0.13512 0.10477,-0.30586 0.10477,-0.51259 0,-0.23848 -0.0441,-0.43533 -0.13229,-0.58984 -0.0991,-0.18733 -0.24518,-0.28117 -0.43533,-0.28117 -0.0995,0 -0.19156,0.025 -0.27587,0.0716 -0.1143,0.0635 -0.17074,0.14887 -0.17074,0.25929 z m -0.36936,1.19062 v -2.30399 c 0,-0.0882 -0.008,-0.14358 -0.0219,-0.16545 -0.0303,-0.0399 -0.0882,-0.0607 -0.17638,-0.0607 h -0.0995 v -0.0663 c 0.21237,-0.0579 0.33902,-0.0935 0.3803,-0.10442 0.0402,-0.0138 0.12841,-0.0455 0.26458,-0.0938 l 0.0222,0.0109 v 1.3395 c 0.0247,-0.066 0.0896,-0.13793 0.19296,-0.21484 0.1323,-0.0953 0.27129,-0.14358 0.41875,-0.14358 0.24942,0 0.44803,0.10477 0.59549,0.31432 0.13229,0.18733 0.19826,0.41205 0.19826,0.6724 0,0.25788 -0.0769,0.49071 -0.23142,0.70026 -0.20249,0.26847 -0.48789,0.40217 -0.85443,0.40217 -0.13229,0 -0.27552,-0.0261 -0.43003,-0.0769 -0.17357,-0.0621 -0.25894,-0.13229 -0.25894,-0.20955 z"
       style="fill:#ececec;fill-opacity:1;fill-rule:nonzero;stroke:none;stroke-width:0.35277775"
       id="path30" />
    <path
       d="m 140.72021,127.51444 v -1.10807 c 0,-0.11712 -0.0166,-0.19438 -0.0497,-0.23142 -0.019,-0.0247 -0.0536,-0.0384 -0.10478,-0.0384 -0.0303,0 -0.0536,0.002 -0.0716,0.005 -0.019,0 -0.0441,0.004 -0.0773,0.0109 v -0.066 c 0.23177,-0.0773 0.44944,-0.15699 0.65617,-0.24272 l 0.0219,0.0113 v 0.39124 c 0.10618,-0.15417 0.20002,-0.25894 0.28116,-0.31433 0.0801,-0.0579 0.16687,-0.0882 0.25929,-0.0882 0.15699,0 0.23707,0.0815 0.23707,0.24271 0,0.055 -0.0166,0.10195 -0.0497,0.13794 -0.0303,0.037 -0.0688,0.055 -0.11571,0.055 -0.0593,0 -0.11854,-0.0247 -0.17639,-0.0773 -0.0554,-0.0508 -0.0991,-0.0773 -0.13229,-0.0773 -0.055,0 -0.11995,0.0441 -0.19297,0.13229 -0.0744,0.0857 -0.11042,0.16263 -0.11042,0.23177 v 0.99766 c 0,0.14041 0.0346,0.23424 0.10477,0.28116 0.0512,0.037 0.14358,0.055 0.27552,0.055 v 0.066 h -1.06927 v -0.066 c 0.1323,-0.0247 0.2152,-0.0512 0.24801,-0.0773 0.0441,-0.0332 0.0663,-0.11006 0.0663,-0.23142 z"
       style="fill:#ececec;fill-opacity:1;fill-rule:nonzero;stroke:none;stroke-width:0.35277775"
       id="path32" />
    <path
       d="m 143.14414,127.34335 v -0.64488 c -0.29492,0.0967 -0.49882,0.20814 -0.61171,0.3362 -0.0744,0.0857 -0.11042,0.18062 -0.11042,0.2868 0,0.1076 0.0275,0.19297 0.0825,0.25894 0.0554,0.0635 0.12418,0.0938 0.20955,0.0938 0.0441,0 0.091,-0.007 0.14323,-0.0222 0.0554,-0.0176 0.0995,-0.0356 0.13229,-0.055 0.0663,-0.0289 0.10759,-0.0607 0.127,-0.0935 0.018,-0.036 0.0275,-0.0896 0.0275,-0.16016 z m 0.68898,0.25364 v 0.11571 c -0.0811,0.0967 -0.16263,0.15875 -0.24236,0.18768 -0.0526,0.0219 -0.10336,0.0328 -0.15452,0.0328 -0.0744,0 -0.13229,-0.0138 -0.17639,-0.0384 -0.0773,-0.0511 -0.11571,-0.14605 -0.11571,-0.28681 -0.11042,0.0995 -0.20672,0.17392 -0.2868,0.22049 -0.12524,0.0691 -0.24519,0.10477 -0.35807,0.10477 -0.12559,0 -0.23566,-0.0413 -0.33091,-0.121 -0.0921,-0.0843 -0.13758,-0.19861 -0.13758,-0.34184 0,-0.20108 0.0935,-0.36654 0.28116,-0.49601 0.13229,-0.0882 0.40922,-0.2166 0.8322,-0.38593 v -0.27023 c 0,-0.139 -0.0413,-0.23954 -0.12135,-0.30304 -0.0593,-0.0441 -0.13512,-0.0663 -0.22578,-0.0663 -0.0773,0 -0.14887,0.0208 -0.21519,0.0607 -0.066,0.0413 -0.0991,0.0938 -0.0991,0.15981 0,0.0303 0.001,0.0607 0.006,0.0938 0.007,0.0303 0.0123,0.055 0.0162,0.0773 0,0.0522 -0.0205,0.0977 -0.0603,0.13758 -0.0374,0.0374 -0.0829,0.0554 -0.13794,0.0554 -0.0635,0 -0.11042,-0.0194 -0.14323,-0.0607 -0.0332,-0.0441 -0.0497,-0.0896 -0.0497,-0.13793 0,-0.10619 0.0564,-0.20955 0.17075,-0.30868 0.13934,-0.12136 0.32526,-0.18204 0.55703,-0.18204 0.28646,0 0.47943,0.0857 0.57856,0.25365 0.055,0.0991 0.0829,0.25224 0.0829,0.45755 v 0.86537 c 0,0.0924 0.005,0.15839 0.0162,0.19861 0.0141,0.0413 0.0512,0.0607 0.11042,0.0607 0.0441,0 0.0801,-0.007 0.11006,-0.0222 0.0289,-0.0138 0.0607,-0.0346 0.0938,-0.0607 z"
       style="fill:#ececec;fill-opacity:1;fill-rule:nonzero;stroke:none;stroke-width:0.35277775"
       id="path34" />
    <path
       d="m 144.17637,127.51444 v -1.10807 c 0,-0.11712 -0.0166,-0.19438 -0.0497,-0.23142 -0.0194,-0.0247 -0.0536,-0.0384 -0.10477,-0.0384 -0.0303,0 -0.0536,0.002 -0.0716,0.005 -0.0194,0 -0.0441,0.004 -0.0773,0.0109 v -0.066 c 0.23177,-0.0773 0.44944,-0.15699 0.65616,-0.24272 l 0.0219,0.0113 v 0.39124 c 0.10619,-0.15417 0.20003,-0.25894 0.28117,-0.31433 0.0801,-0.0579 0.16686,-0.0882 0.25894,-0.0882 0.15734,0 0.23706,0.0815 0.23706,0.24271 0,0.055 -0.0162,0.10195 -0.0494,0.13794 -0.0303,0.037 -0.0691,0.055 -0.11571,0.055 -0.0593,0 -0.11853,-0.0247 -0.17639,-0.0773 -0.0554,-0.0508 -0.0995,-0.0773 -0.13229,-0.0773 -0.0554,0 -0.11994,0.0441 -0.19297,0.13229 -0.0744,0.0857 -0.11042,0.16263 -0.11042,0.23177 v 0.99766 c 0,0.14041 0.0346,0.23424 0.10478,0.28116 0.0512,0.037 0.14323,0.055 0.27552,0.055 v 0.066 h -1.06927 v -0.066 c 0.13229,-0.0247 0.21519,-0.0512 0.248,-0.0773 0.0441,-0.0332 0.0663,-0.11006 0.0663,-0.23142 z"
       style="fill:#ececec;fill-opacity:1;fill-rule:nonzero;stroke:none;stroke-width:0.35277775"
       id="path36" />
    <path
       d="m 147.43251,125.88814 v 0.0663 c -0.0483,0.0109 -0.0811,0.0219 -0.0991,0.0332 -0.0441,0.0303 -0.0825,0.0854 -0.11571,0.1651 l -0.68368,1.81927 c -0.11854,0.30868 -0.23001,0.53058 -0.3362,0.66675 -0.11853,0.14605 -0.25753,0.22049 -0.41875,0.22049 -0.10336,0 -0.18485,-0.0275 -0.24271,-0.0825 -0.055,-0.0522 -0.0825,-0.11042 -0.0825,-0.17639 0,-0.0413 0.008,-0.0759 0.0275,-0.10477 0.036,-0.0593 0.0991,-0.0882 0.18733,-0.0882 0.0399,0 0.0854,0.007 0.13793,0.0222 0.055,0.0138 0.11289,0.0328 0.17639,0.055 0.0991,0 0.19579,-0.10478 0.2921,-0.31433 0.0773,-0.18062 0.11571,-0.30304 0.11571,-0.36936 0,-0.0328 -0.037,-0.12664 -0.11007,-0.28116 -0.0554,-0.11006 -0.11042,-0.22048 -0.16545,-0.33055 l -0.5073,-1.09678 c -0.0261,-0.0554 -0.0716,-0.0952 -0.13758,-0.12136 -0.0332,-0.0109 -0.0635,-0.018 -0.0882,-0.0222 v -0.0607 h 0.91475 v 0.0663 c -0.0741,0 -0.13476,0.01 -0.18168,0.0275 -0.0483,0.0152 -0.0716,0.0497 -0.0716,0.10478 0,0.0219 0.003,0.0497 0.0109,0.0825 0.0109,0.0303 0.0219,0.0554 0.0332,0.0773 l 0.51259,1.12465 0.34184,-0.98672 c 0.0219,-0.0621 0.0441,-0.12276 0.066,-0.18203 0.0247,-0.0621 0.0385,-0.10195 0.0385,-0.12136 0,-0.084 -0.0716,-0.12664 -0.21484,-0.12664 v -0.0663 z"
       style="fill:#ececec;fill-opacity:1;fill-rule:nonzero;stroke:none;stroke-width:0.35277775"
       id="path38" />
  </g>
</svg>
